<svg xmlns="http://www.w3.org/2000/svg" width="39.239" height="53.838" viewBox="0 0 39.239 53.838">
  <g id="Group_1649" data-name="Group 1649" transform="translate(-745.793 -294.127)">
    <g id="Group_1643" data-name="Group 1643" transform="translate(745.793 294.127)">
      <path id="Path_9007" data-name="Path 9007" d="M775.263,296.472c-1.355-3.285-17.652-6.206-21.957,13.986-.694,4.03.01,9.46,6.381,16.442,4.3-1.379,9.612-7.054,19.326-5.121C780.8,316.643,776.365,299.145,775.263,296.472Z" transform="translate(-749.123 -294.127)" fill="#501f23"/>
      <g id="Group_1639" data-name="Group 1639" transform="translate(0.412 38.549)">
        <path id="Path_9008" data-name="Path 9008" d="M753.71,372.737v.043c-.007.553-.022,1.121-.067,1.674a16.74,16.74,0,0,1-.221,1.983c-.037.214-.074.42-.119.619-.154-.08-.309-.169-.457-.257-.368-.215-.729-.435-1.09-.671-.641-.406-1.262-.848-1.873-1.312a31.582,31.582,0,0,1-3.333-2.949,9.993,9.993,0,0,1,3.392-4.977,12.924,12.924,0,0,1,2.81-1.652.024.024,0,0,1,.015-.008c.147-.073.3-.133.457-.2l.162,1.887A50.888,50.888,0,0,1,753.71,372.737Z" transform="translate(-746.55 -365.032)" fill="#ffc197"/>
      </g>
      <g id="Group_1640" data-name="Group 1640" transform="translate(31.666 38.549)">
        <path id="Path_9009" data-name="Path 9009" d="M811.2,371.867a30.932,30.932,0,0,1-3.34,2.956q-.873.662-1.791,1.259c-.383.252-.768.488-1.159.71l-.463.264c-.046-.2-.083-.4-.119-.619a16.944,16.944,0,0,1-.222-1.983c-.038-.517-.059-1.033-.059-1.548a.839.839,0,0,1-.007-.134,51.758,51.758,0,0,1,.324-5.854l.162-1.887c.161.066.325.133.48.214a.037.037,0,0,1,.029.015,12.642,12.642,0,0,1,2.772,1.63A9.976,9.976,0,0,1,811.2,371.867Z" transform="translate(-804.037 -365.032)" fill="#ffc197"/>
      </g>
      <path id="Path_9010" data-name="Path 9010" d="M796.494,324.175c2.661-2.648,3.036,1.355,2.323,3.3-1.174,3.2-3.738,3.826-6.827,3.325Z" transform="translate(-766.874 -307.438)" fill="#f7996b"/>
      <path id="Path_9011" data-name="Path 9011" d="M761.267,324.175c-2.661-2.648-3.036,1.355-2.322,3.3,1.174,3.2,3.738,3.826,6.826,3.325Z" transform="translate(-751.65 -307.438)" fill="#f7996b"/>
      <path id="Path_9012" data-name="Path 9012" d="M784.488,361.553c0,4.029-7.266,7.293-16.233,7.293s-16.232-3.264-16.232-7.293c0-2,1.784-3.8,4.674-5.119,1.921-.874,7.307-2.133,7.318-2.956,0-.213.009-.718.015-1.355.031-1.83.066-4.726.066-4.726h8.163s.05,1.006.106,2.214c.07,1.562.155,3.466.167,3.972.015.89,5.336,1.971,7.253,2.835C782.69,357.739,784.488,359.552,784.488,361.553Z" transform="translate(-748.636 -318.436)" fill="#ffc197"/>
      <path id="Path_9013" data-name="Path 9013" d="M782.443,349.611c-1.871,3.441-4.867,5.3-6.873,4.276a3.5,3.5,0,0,1-1.456-1.648l-.005-.117c.031-1.83.066-4.726.066-4.726h8.163S782.387,348.4,782.443,349.611Z" transform="translate(-758.714 -318.436)" fill="#f7996b"/>
      <path id="Path_9014" data-name="Path 9014" d="M783.529,316.44c0,7.449-6.848,13.487-10.271,13.487s-10.271-6.039-10.271-13.487.726-14.731,10.271-14.731S783.529,308.992,783.529,316.44Z" transform="translate(-753.64 -297.587)" fill="#ffc197"/>
      <path id="Path_9015" data-name="Path 9015" d="M777.609,301.66c-.579-4.462-4.063-7.012-7.838-6.2-5.291,1.135-16.632,7.987-8.947,16.937.26-9.7,16.532-6.951,16.4-10.217Z" transform="translate(-751.469 -294.666)" fill="#672528"/>
      <path id="Path_9016" data-name="Path 9016" d="M776.183,297.2c-1.456,2.186-.829,3.761.364,5.629-3.564.693-9.4,2.609-11.2,4.951C764.507,304.392,767.961,297.2,776.183,297.2Z" transform="translate(-754.66 -295.529)" fill="#7f3830"/>
      <path id="Path_9017" data-name="Path 9017" d="M807.446,372.853c-.14.146-.279.287-.413.435a30.939,30.939,0,0,1-3.34,2.956q-.872.662-1.791,1.259c-.383.252-.768.488-1.159.709l-.463.264a26.364,26.364,0,0,1-5.369,2.25l1.283-2.869.163-.355c.11-.132.228-.257.346-.375.951-1,2.11-1.7,2.993-2.721a.779.779,0,0,0,.1-.111.584.584,0,0,0,.073-.1.71.71,0,0,0,.081-.109,2.054,2.054,0,0,0,.133-.2c.1-.155.207-.34.333-.546.059-.1.125-.214.191-.325.008-.015.022-.036.03-.051.058-.1.118-.2.176-.3.421-.73.908-1.584,1.365-2.337q.122-.21.243-.4c.17-.281.332-.538.479-.76.119-.17.222-.325.326-.45.007-.015.021-.029.028-.044a1.565,1.565,0,0,1,.133-.155,1.154,1.154,0,0,1,.133-.133.482.482,0,0,1,.117-.073.1.1,0,0,1,.052-.031.677.677,0,0,1,.132-.066c.577-.228,1.166.14,1.673.744a4.715,4.715,0,0,1,.3.383c.059.082.118.17.177.259.073.126.155.258.228.383.126.221.244.449.347.671.168.361.362.81.553,1.3.06.141.118.289.169.435S807.394,372.7,807.446,372.853Z" transform="translate(-768.208 -327.904)" fill="#ab47bc"/>
      <path id="Path_9018" data-name="Path 9018" d="M803.693,377.1q-.872.662-1.791,1.259c-.383.252-.768.488-1.159.71l-.463.264a26.362,26.362,0,0,1-5.369,2.25l1.283-2.869.163-.355c.11-.132.228-.257.346-.375.951-1,2.11-1.7,2.993-2.72a.779.779,0,0,0,.1-.111.582.582,0,0,0,.073-.1.709.709,0,0,0,.081-.109,2.046,2.046,0,0,0,.133-.2c.1-.155.207-.34.333-.546.059-.1.125-.214.191-.325.008-.015.022-.036.03-.051.058-.1.118-.2.176-.3.421-.73.908-1.584,1.365-2.337q.122-.21.243-.4c.17-.28.332-.538.479-.759-.029.176-.051.346-.066.524-.029.257-.052.524-.066.782v.015a13.444,13.444,0,0,0,.191,3.171v.008c.023.154.052.316.089.471.044.228.1.457.161.678a.2.2,0,0,0,.016.067c.066.227.133.456.206.685A3.3,3.3,0,0,0,803.693,377.1Z" transform="translate(-768.208 -328.76)" fill="#8e24aa"/>
      <path id="Path_9019" data-name="Path 9019" d="M758.327,380.732a26.365,26.365,0,0,1-5.369-2.25c-.154-.08-.309-.169-.457-.257-.368-.215-.729-.435-1.09-.671-.642-.406-1.262-.848-1.874-1.312a31.572,31.572,0,0,1-3.333-2.949c-.133-.148-.272-.289-.412-.435.044-.133.088-.258.14-.377.191-.53.39-1.017.575-1.43.058-.139.118-.272.177-.389.656-1.409,1.821-3.023,2.912-2.345a.466.466,0,0,1,.119.073,1.7,1.7,0,0,1,.294.323,17.851,17.851,0,0,1,1.055,1.63c.037.067.082.14.133.221.037.058.074.125.111.192.058.1.117.191.176.294.612,1.039,1.223,2.131,1.623,2.765a3.626,3.626,0,0,0,.206.318.222.222,0,0,0,.052.066v.008a.508.508,0,0,0,.073.1c.9,1.085,2.109,1.807,3.1,2.832.119.118.236.243.347.375l.163.355Z" transform="translate(-745.793 -327.909)" fill="#ab47bc"/>
      <path id="Path_9020" data-name="Path 9020" d="M761.47,385.482a26.367,26.367,0,0,1-5.369-2.25c-.154-.08-.309-.169-.457-.257-.368-.215-.729-.435-1.09-.671-.642-.406-1.262-.848-1.873-1.312a22.833,22.833,0,0,0,2.1-1.349c.383-.258.759-.539,1.135-.826a.921.921,0,0,0,.17-.133,1.277,1.277,0,0,0,.163-.118,3.63,3.63,0,0,0,.206.318.22.22,0,0,0,.052.066v.008a.506.506,0,0,0,.073.1c.9,1.085,2.109,1.807,3.1,2.832.119.118.236.243.347.375l.163.355Z" transform="translate(-748.936 -332.659)" fill="#8e24aa"/>
      <path id="Path_9021" data-name="Path 9021" d="M784.2,382.327c-.383.252-.768.488-1.159.71l-.463.264a26.362,26.362,0,0,1-5.369,2.25,25.211,25.211,0,0,1-14.171,0,26.363,26.363,0,0,1-5.369-2.25c-.154-.08-.309-.169-.457-.257-.368-.215-.729-.435-1.09-.671a14.164,14.164,0,0,1,.781-2.3,11.2,11.2,0,0,1,.582-1.188c.03-.059.066-.118.1-.169a.22.22,0,0,0,.073.036,3.657,3.657,0,0,0,.369.2.181.181,0,0,0,.052.03,27.747,27.747,0,0,0,12.217,2.492,28.408,28.408,0,0,0,11.7-2.241,1.508,1.508,0,0,0,.184-.081c.2-.1.4-.2.59-.3.214.376.428.781.627,1.193A10.056,10.056,0,0,1,784.2,382.327Z" transform="translate(-750.509 -332.728)" fill="#ab47bc"/>
      <path id="Path_9022" data-name="Path 9022" d="M782.105,336.6c0,.414-.633.751-1.412.751s-1.412-.337-1.412-.751.632-.291,1.412-.291S782.105,336.188,782.105,336.6Z" transform="translate(-761.075 -313.369)" fill="#f7996b"/>
      <path id="Path_9023" data-name="Path 9023" d="M781.317,365.47c-.929,1.716-25.2,1.716-26.124,0a5.675,5.675,0,0,0-3.17,1.964,35.365,35.365,0,0,0,7.48,9.162c3.043,2.328,8.695,2.7,8.695,2.7s.022-.024.057-.072c.035.047.057.072.057.072s5.652-.368,8.7-2.7a35.4,35.4,0,0,0,7.48-9.162A5.675,5.675,0,0,0,781.317,365.47Z" transform="translate(-748.636 -326.683)" fill="#ab47bc"/>
      <path id="Path_9024" data-name="Path 9024" d="M786.02,327.272c.642-2.038,3.277-3.966,5.627-2.9a1.539,1.539,0,0,1,.2,2.8,6.4,6.4,0,0,1-5.268.338Z" transform="translate(-764.15 -307.79)" fill="#501f23"/>
      <path id="Path_9025" data-name="Path 9025" d="M786.963,329.049c1.289,1.7,4.841,1.282,5.234-.06a1.159,1.159,0,0,0-.289-1.117Z" transform="translate(-764.58 -309.526)" fill="#501f23"/>
      <path id="Path_9026" data-name="Path 9026" d="M788.7,329.653a.541.541,0,0,1-.111-.008,6.924,6.924,0,0,1-2.071-.818,3.076,3.076,0,0,1,1.209-1.585,2,2,0,0,0-.118.67A1.923,1.923,0,0,0,788.7,329.653Z" transform="translate(-764.379 -309.238)" fill="#eaedef"/>
      <path id="Path_9027" data-name="Path 9027" d="M795.777,327.446a1.976,1.976,0,0,1-1.512,1.423,1.955,1.955,0,0,0,.2-2.957C795.378,326.133,795.9,326.76,795.777,327.446Z" transform="translate(-767.912 -308.632)" fill="#eaedef"/>
      <path id="Path_9028" data-name="Path 9028" d="M792.429,327.232a1.952,1.952,0,0,1-.782,1.563h-.008a5.067,5.067,0,0,1-2.02.177,1.923,1.923,0,0,1-1.092-1.74,2,2,0,0,1,.118-.67,4.452,4.452,0,0,1,1.342-.657,3.742,3.742,0,0,1,1.857-.066A1.941,1.941,0,0,1,792.429,327.232Z" transform="translate(-765.294 -308.558)" fill="#2073a5"/>
      <path id="Path_9029" data-name="Path 9029" d="M795.664,328.168a.5.5,0,1,1-.5-.5A.5.5,0,0,1,795.664,328.168Z" transform="translate(-768.095 -309.433)" fill="#fff"/>
      <path id="Path_9030" data-name="Path 9030" d="M772.17,327.272c-.643-2.038-3.277-3.966-5.628-2.9a1.538,1.538,0,0,0-.195,2.8,6.392,6.392,0,0,0,5.267.338Z" transform="translate(-754.802 -307.79)" fill="#501f23"/>
      <path id="Path_9031" data-name="Path 9031" d="M772.369,329.049c-1.29,1.7-4.841,1.282-5.236-.06a1.158,1.158,0,0,1,.291-1.117Z" transform="translate(-755.513 -309.526)" fill="#501f23"/>
      <path id="Path_9032" data-name="Path 9032" d="M768.21,328.868a1.954,1.954,0,0,1-1.5-1.423c-.125-.686.4-1.312,1.305-1.534a1.955,1.955,0,0,0,.2,2.957Z" transform="translate(-755.328 -308.632)" fill="#eaedef"/>
      <path id="Path_9033" data-name="Path 9033" d="M775.413,328.827a7.006,7.006,0,0,1-2.078.818.481.481,0,0,1-.1.008,1.929,1.929,0,0,0,1.085-1.74,1.851,1.851,0,0,0-.125-.67A3.06,3.06,0,0,1,775.413,328.827Z" transform="translate(-758.313 -309.238)" fill="#eaedef"/>
      <path id="Path_9034" data-name="Path 9034" d="M771.951,327.232a1.929,1.929,0,0,1-1.085,1.74,5.1,5.1,0,0,1-2.027-.177h-.007a1.955,1.955,0,0,1-.2-2.956,3.746,3.746,0,0,1,1.858.066,4.027,4.027,0,0,1,1.335.657A1.849,1.849,0,0,1,771.951,327.232Z" transform="translate(-755.949 -308.558)" fill="#2073a5"/>
      <path id="Path_9035" data-name="Path 9035" d="M775.178,328.168a.5.5,0,1,1-.5-.5A.5.5,0,0,1,775.178,328.168Z" transform="translate(-758.747 -309.433)" fill="#fff"/>
      <g id="Group_1641" data-name="Group 1641" transform="translate(21.799 13.709)">
        <path id="Path_9036" data-name="Path 9036" d="M792.638,321.071a4.821,4.821,0,0,0-2.915-1.7c-1.154-.158-2.206.466-3.336.553-.748.057-.613,1.258.138,1.2,1-.08,1.913-.549,2.916-.593a6.107,6.107,0,0,1,3.132.742c.108.058.114-.142.065-.2Z" transform="translate(-785.889 -319.343)" fill="#501f23"/>
      </g>
      <g id="Group_1642" data-name="Group 1642" transform="translate(10.322 13.321)">
        <path id="Path_9037" data-name="Path 9037" d="M764.823,319.892a4.822,4.822,0,0,1,3.132-1.262c1.163.01,2.115.781,3.22,1.03.732.165.425,1.334-.309,1.166-.976-.225-1.815-.821-2.8-1.01a6.108,6.108,0,0,0-3.206.279c-.114.042-.092-.157-.037-.2Z" transform="translate(-764.779 -318.63)" fill="#501f23"/>
      </g>
      <path id="Path_9038" data-name="Path 9038" d="M795.406,316c.189,3.8-1.529,6.514-2.8,8.815a7.547,7.547,0,0,0,3.378,1.844c.62.16,8.425-15.367.667-23.705-3-3.227-4.5-2.9-6.551-.239l.776,1.206C790.463,307.8,795.1,309.832,795.406,316Z" transform="translate(-766.012 -297.092)" fill="#672528"/>
      <path id="Path_9039" data-name="Path 9039" d="M797.167,305.7c-.1,1.422-.89,1.891-2.022,2.3,1.3,1.479,3.176,4.236,3.174,5.84C799.8,312.656,800.7,308.419,797.167,305.7Z" transform="translate(-768.314 -299.406)" fill="#7f3830"/>
    </g>
    <g id="Group_1644" data-name="Group 1644" transform="translate(761.683 320.093)">
      <path id="Path_9040" data-name="Path 9040" d="M778.777,341.981c-1.307.031-2.907.448-3.756-.094a6.8,6.8,0,0,0,3.465,2.572c.091-.005.191-.014.291-.028.1.014.2.022.292.028a6.8,6.8,0,0,0,3.465-2.572C781.686,342.429,780.085,342.012,778.777,341.981Z" transform="translate(-775.021 -341.887)" fill="#9c002a"/>
      <path id="Path_9041" data-name="Path 9041" d="M779.077,343.513a10.958,10.958,0,0,1-3.632-1.047c.89,1.142,2.121,2.495,3.508,2.462h.116c1.39.033,2.94-1.686,3.428-2.462A9.224,9.224,0,0,1,779.077,343.513Z" transform="translate(-775.214 -342.151)" fill="#c70239"/>
    </g>
  </g>
</svg>
