<svg xmlns="http://www.w3.org/2000/svg" width="39.195" height="54.449" viewBox="0 0 39.195 54.449">
  <g id="Group_1646" data-name="Group 1646" transform="translate(-623.155 -166.412)">
    <path id="Path_8935" data-name="Path 8935" d="M660.663,182.119a19.5,19.5,0,0,0-6.213-9.161,8.47,8.47,0,0,0-1.642-1.02c-.249-.116-1.492-.379-1.594-.576-1.737-3.365-6.073-5.264-9.661-4.906-6.826.682-12.3,7.029-12.672,13.8a15.288,15.288,0,0,0,1.237,6.8c.854,1.774,2.4,3.682,2.479,5.715a6.211,6.211,0,0,1-1.6,4.32c-.913,1.048-2.328,1.7-3.528.743-.495-.4-.41-1.036-.139-1.684-4.387,4.688,1.391,13.2,3.378,14.331,4.194,2.4,25.629,9.461,31.378-4.426,2.338-5.645,1.53-12.358.207-18.129A50.882,50.882,0,0,0,660.663,182.119Z" transform="translate(-1.226)"/>
    <path id="Path_8936" data-name="Path 8936" d="M668.024,232.28l1.319,2.485-1.737.22v-2.7Z" transform="translate(-21.17 -31.37)" fill="#aa0018"/>
    <path id="Path_8937" data-name="Path 8937" d="M651.348,232.28l-1.32,2.485,1.737.22v-2.7Z" transform="translate(-12.798 -31.37)" fill="#aa0018"/>
    <path id="Path_8938" data-name="Path 8938" d="M675.221,199.683c2.617-2.6,2.984,1.332,2.284,3.244-1.154,3.15-3.674,3.76-6.71,3.268Z" transform="translate(-22.688 -15.434)" fill="#f7996b"/>
    <path id="Path_8939" data-name="Path 8939" d="M639.345,199.683c-2.616-2.6-2.983,1.332-2.283,3.244,1.155,3.15,3.675,3.76,6.711,3.268Z" transform="translate(-6.475 -15.434)" fill="#f7996b"/>
    <path id="Path_8940" data-name="Path 8940" d="M661.924,237.327c0,3.96-7.144,7.168-15.957,7.168s-15.956-3.209-15.956-7.168c0-1.962,1.754-3.74,4.6-5.032,1.888-.859,7.183-2.1,7.193-2.906,0-.208.01-.705.015-1.332.03-1.8.064-4.644.064-4.644H649.9s.049.988.1,2.176c.07,1.534.155,3.407.165,3.9.015.874,5.246,1.937,7.129,2.786C660.156,233.577,661.924,235.36,661.924,237.327Z" transform="translate(-3.265 -27.147)" fill="#ffc197"/>
    <path id="Path_8941" data-name="Path 8941" d="M660.739,225.589c-1.837,3.382-4.783,5.206-6.756,4.2a3.442,3.442,0,0,1-1.431-1.619l0-.115c.03-1.8.064-4.644.064-4.644h8.023S660.685,224.4,660.739,225.589Z" transform="translate(-13.999 -27.147)" fill="#f7996b"/>
    <path id="Path_8942" data-name="Path 8942" d="M661.391,191.273c0,7.322-6.73,13.256-10.1,13.256s-10.1-5.934-10.1-13.256.713-14.481,10.1-14.481S661.391,183.952,661.391,191.273Z" transform="translate(-8.594 -4.943)" fill="#ffc197"/>
    <path id="Path_8943" data-name="Path 8943" d="M655.393,176.506c-.568-4.385-3.993-6.894-7.7-6.1-5.2,1.115-16.348,7.85-8.8,16.648.257-9.537,16.251-6.833,16.119-10.044Z" transform="translate(-6.283 -1.833)" fill="#13252d"/>
    <path id="Path_8944" data-name="Path 8944" d="M671.627,179.381c3.55-.93,8.107,3.391,7.555,6.928-.311,1.984-1.77,3.371-3.306,5.034-.291-1.722-.367-4.971-3.159-7.727-1.127-1.112-.828-2.248-1.089-3.743Z" transform="translate(-23.085 -6.115)" fill="#13252d"/>
    <path id="Path_8945" data-name="Path 8945" d="M660.6,212.386c0,.407-.621.737-1.388.737s-1.387-.33-1.387-.737.621-.285,1.387-.285S660.6,211.979,660.6,212.386Z" transform="translate(-16.513 -21.751)" fill="#f7996b"/>
    <path id="Path_8946" data-name="Path 8946" d="M654.254,172.191c-1.432,2.148-.815,3.7.358,5.533-3.5.681-9.24,2.564-11.011,4.866C642.777,179.262,646.173,172.191,654.254,172.191Z" transform="translate(-9.68 -2.752)" fill="#2a3e44"/>
    <path id="Path_8947" data-name="Path 8947" d="M677.535,182.118c-.1,1.4-.874,1.86-1.987,2.26,1.279,1.453,3.121,4.164,3.119,5.741C680.125,188.961,681.009,184.8,677.535,182.118Z" transform="translate(-24.953 -7.48)" fill="#2a3e44"/>
    <path id="Path_8948" data-name="Path 8948" d="M659.352,264.952a.058.058,0,0,0-.026.005,24.657,24.657,0,0,1-8.406,0,.212.212,0,0,1-.026-.005c-.907-.158-2.719-5.468-.844-5.18.1.016.2.032.3.042a34.642,34.642,0,0,0,9.533.052c.1-.01.2-.027.3-.042C662.028,259.562,660.259,264.789,659.352,264.952Z" transform="translate(-12.42 -44.457)" fill="#d6e4ea"/>
    <path id="Path_8949" data-name="Path 8949" d="M628.423,252.55c-.057-.037-.12-.079-.178-.121-.4-.277-.8-.571-1.178-.869l-.089-.072a28.148,28.148,0,0,1-3.147-2.881c-.142-.141-.278-.289-.4-.435-.1-.1-.188-.2-.272-.3.539-1.974,1.314-4.52,2.1-5.111a1.049,1.049,0,0,1,.911-.267.637.637,0,0,1,.146.052.837.837,0,0,1,.2.141.307.307,0,0,1,.058.057l.063.063a.967.967,0,0,1,.068.084c.047.062.094.131.142.2a2.716,2.716,0,0,1,.188.372c.037.079.068.163.1.252.005.01.01.025.015.037.032.083.063.172.09.267a.513.513,0,0,1,.015.052c.037.115.068.23.1.351,0,.005,0,.01,0,.02v.005a.023.023,0,0,1,.005.012c.026.1.053.215.079.324.031.136.063.272.089.42.026.131.047.262.073.4,0,.016.006.026.006.042.031.178.057.361.083.544.032.237.063.472.089.708.016.136.032.267.042.4.027.245.053.487.074.727.01.121.021.237.031.351.021.283.042.55.063.807.005.062.011.126.016.183,0,.027,0,.052,0,.079a.2.2,0,0,1,.005.052c.042.613.079,1.116.126,1.414.005.021.005.042.011.063a.752.752,0,0,0,.02.109c.074.41.147.823.215,1.237C628.4,252.393,628.408,252.471,628.423,252.55Z" transform="translate(0 -36.219)" fill="#aa0018"/>
    <path id="Path_8950" data-name="Path 8950" d="M641.341,254.137a24.214,24.214,0,0,1-2.672-.624c-.424-.126-.843-.262-1.262-.409a25.411,25.411,0,0,1-4.1-1.87c-.142-.074-.278-.151-.414-.235-.372-.22-.744-.451-1.106-.692-.168-.105-.335-.215-.5-.335-.057-.037-.12-.079-.178-.121-.4-.277-.8-.571-1.178-.869l-.089-.072c-.34-3.012-.513-5.5-.591-7.081-.021-.294-.032-.556-.042-.786-.016-.382-.026-.671-.031-.854,0-.116-.006-.188-.006-.225v-.021a42.853,42.853,0,0,1,7.4-2.56.247.247,0,0,1,.047-.017l1.178-.314s.058.116.178.445a66.574,66.574,0,0,1,2.158,9.412v.005c.121.639.241,1.319.367,2.043.089.507.178,1.038.267,1.587.006.042.016.084.021.126C640.964,251.744,641.147,252.9,641.341,254.137Z" transform="translate(-2.867 -33.642)" fill="#9c002a"/>
    <path id="Path_8951" data-name="Path 8951" d="M645.687,234.864a49.264,49.264,0,0,0-.184,9.9c.037.623.089,1.278.147,1.964.042.5.089,1.016.147,1.545a.681.681,0,0,0,.016.147c.11,1.083.241,2.231.4,3.451a.212.212,0,0,1-.026-.005,24.223,24.223,0,0,1-2.672-.624c-.424-.126-.843-.262-1.262-.409-.3-.906-.608-1.766-.9-2.561-.121-.32-.236-.629-.34-.927-.084-.22-.163-.429-.241-.634,0-.005,0-.005-.005-.005-.184-.487-.351-.932-.509-1.33-.55-1.415-.911-2.263-.911-2.263s.078-.062.214-.168a10.764,10.764,0,0,1,3.006-1.781,17.523,17.523,0,0,1-2.807-1.465,17.463,17.463,0,0,1,1.3-3.913q.157-.338.346-.675a.245.245,0,0,1,.047-.017c.587-.245,4.358-2.681,4.793-2.807a.037.037,0,0,1-.005.02,10.209,10.209,0,0,0-.44,1.761C645.771,234.308,645.723,234.57,645.687,234.864Z" transform="translate(-7.715 -31.375)" fill="#c70239"/>
    <path id="Path_8952" data-name="Path 8952" d="M693.009,247.866a3.6,3.6,0,0,1-.272.3v0c-.131.147-.267.294-.409.44a29.083,29.083,0,0,1-3.147,2.881c-.031.026-.068.058-.105.084-.351.272-.707.539-1.068.791-.094.068-.183.131-.272.189.094-.534.188-1.063.277-1.587.006-.042.016-.089.021-.136.048-.362.089-.949.147-1.656.016-.246.037-.513.063-.786.037-.466.084-.958.141-1.457a19.345,19.345,0,0,1,.425-2.493,5.553,5.553,0,0,1,.215-.685.08.08,0,0,1,.015-.047,2.03,2.03,0,0,1,.812-1.168.971.971,0,0,1,1.057.215,1.749,1.749,0,0,1,.336.361A19.093,19.093,0,0,1,693.009,247.866Z" transform="translate(-30.757 -36.218)" fill="#aa0018"/>
    <path id="Path_8953" data-name="Path 8953" d="M680.716,239.943v.021c0,.089-.011.466-.037,1.079-.01.23-.021.492-.042.786-.016.335-.037.707-.058,1.125v.005c-.1,1.536-.267,3.583-.534,5.956-.031.026-.068.058-.105.084-.351.272-.706.539-1.068.791-.094.068-.183.131-.272.189-.142.1-.288.2-.43.293-.388.252-.775.5-1.167.729-.142.084-.278.161-.414.235a25.062,25.062,0,0,1-4.107,1.865c-.414.151-.838.287-1.262.413a25.416,25.416,0,0,1-2.666.624c.188-1.242.378-2.393.55-3.468.01-.042.015-.084.021-.126.089-.534.178-1.043.262-1.535.057-.351.12-.687.172-1.011a73.764,73.764,0,0,1,2.346-10.449,3.751,3.751,0,0,1,.194-.5c.408.111.8.215,1.173.314a.249.249,0,0,1,.047.017A42.856,42.856,0,0,1,680.716,239.943Z" transform="translate(-21.622 -33.642)" fill="#9c002a"/>
    <path id="Path_8954" data-name="Path 8954" d="M675.323,243.118s-.252.586-.649,1.6c-.1.25-.21.524-.325.821-.136.362-.288.75-.445,1.173l-.006.005c-.078.2-.157.414-.235.634-.116.3-.226.608-.346.927-.289.79-.592,1.65-.9,2.556-.414.151-.838.287-1.262.413a25.412,25.412,0,0,1-2.666.624.058.058,0,0,0-.026.005c.163-1.22.294-2.368.409-3.451,0-.053,0-.1.01-.147q.079-.771.142-1.493c.031-.351.058-.691.084-1.027a51.354,51.354,0,0,0-.121-10.893c-.031-.251-.068-.477-.1-.686a10.377,10.377,0,0,0-.461-1.865c0-.01-.005-.015-.005-.02.435.121,4.206,2.556,4.793,2.807a.248.248,0,0,1,.047.017c.126.23.246.465.356.7A16.914,16.914,0,0,1,674.9,239.7a17.526,17.526,0,0,1-2.807,1.465A12.258,12.258,0,0,1,675.323,243.118Z" transform="translate(-21.555 -31.375)" fill="#c70239"/>
    <g id="Group_1628" data-name="Group 1628" transform="translate(645.12 179.458)">
      <path id="Path_8955" data-name="Path 8955" d="M671.094,194.346a4.638,4.638,0,0,0-2.121-2.465c-1-.506-2.156-.268-3.212-.542-.7-.182-.954.953-.251,1.134.934.239,1.914.1,2.843.374a5.889,5.889,0,0,1,2.62,1.657c.08.086.148-.094.121-.158Z" transform="translate(-665.093 -191.319)"/>
    </g>
    <path id="Path_8956" data-name="Path 8956" d="M664.617,202.466c.617-2.663,3.156-5.182,5.42-3.791a2.356,2.356,0,0,1,.19,3.659,4.743,4.743,0,0,1-5.076.44Z" transform="translate(-19.747 -15.176)"/>
    <path id="Path_8957" data-name="Path 8957" d="M665.559,205.57c1.242,1.866,4.664,1.407,5.043-.065a1.391,1.391,0,0,0-.278-1.225Z" transform="translate(-20.195 -18.034)"/>
    <path id="Path_8958" data-name="Path 8958" d="M665.114,203.7a4.218,4.218,0,0,1,2.463-2.931c1.894-.694,3.24.515,3.05,1.916-.246,1.8-2.11,2.31-3.514,2.075A6.01,6.01,0,0,1,665.114,203.7Z" transform="translate(-19.983 -16.266)" fill="#eaedef"/>
    <path id="Path_8959" data-name="Path 8959" d="M670.888,203.164a1.879,1.879,0,1,1-1.879-1.878A1.879,1.879,0,0,1,670.888,203.164Z" transform="translate(-20.944 -16.608)" fill="#4090a8"/>
    <path id="Path_8960" data-name="Path 8960" d="M674.223,204.551a.481.481,0,1,1-.48-.48A.48.48,0,0,1,674.223,204.551Z" transform="translate(-23.864 -17.935)" fill="#fff"/>
    <g id="Group_1629" data-name="Group 1629" transform="translate(634.275 179.427)">
      <path id="Path_8961" data-name="Path 8961" d="M644.393,194.3a4.644,4.644,0,0,1,2.119-2.469c1-.509,2.155-.271,3.211-.547.7-.183.955.952.253,1.133-.934.241-1.915.1-2.842.38a5.889,5.889,0,0,0-2.618,1.661c-.079.086-.149-.094-.122-.157Z" transform="translate(-644.387 -191.262)"/>
    </g>
    <path id="Path_8962" data-name="Path 8962" d="M650.523,202.466c-.617-2.663-3.157-5.182-5.42-3.791a2.356,2.356,0,0,0-.189,3.659,4.741,4.741,0,0,0,5.075.44Z" transform="translate(-9.99 -15.176)"/>
    <path id="Path_8963" data-name="Path 8963" d="M650.772,205.57c-1.242,1.866-4.664,1.407-5.044-.065a1.387,1.387,0,0,1,.28-1.225Z" transform="translate(-10.733 -18.034)"/>
    <path id="Path_8964" data-name="Path 8964" d="M650.808,203.7a4.215,4.215,0,0,0-2.462-2.931c-1.895-.694-3.24.515-3.051,1.916.246,1.8,2.109,2.31,3.514,2.075A6,6,0,0,0,650.808,203.7Z" transform="translate(-10.536 -16.266)" fill="#eaedef"/>
    <path id="Path_8965" data-name="Path 8965" d="M650.4,203.164a1.879,1.879,0,1,1-1.878-1.878A1.879,1.879,0,0,1,650.4,203.164Z" transform="translate(-11.188 -16.608)" fill="#4090a8"/>
    <path id="Path_8966" data-name="Path 8966" d="M653.738,204.551a.481.481,0,1,1-.48-.48A.48.48,0,0,1,653.738,204.551Z" transform="translate(-14.108 -17.935)" fill="#fff"/>
    <g id="Group_1630" data-name="Group 1630" transform="translate(641.094 193.339)">
      <path id="Path_8967" data-name="Path 8967" d="M659.118,222.174c-1.5-.007-1.517-2.485-1.485-2.569.425-1.122,1.093-1.781,1.706-1.781.732,0,1.274.953,1.392,1.964C660.754,219.9,660.093,222.174,659.118,222.174Z" transform="translate(-657.511 -217.823)" fill="#ac2436"/>
      <path id="Path_8968" data-name="Path 8968" d="M660.658,221.74c.031,1.069-.724,2.31-1.7,2.31-1.5-.007-1.643-2.095-1.517-2.571.032-.087.054-.171.086-.256.252.314.488.634.589.757l1.73.346.778-.92A1.635,1.635,0,0,1,660.658,221.74Z" transform="translate(-657.406 -219.443)" fill="#c82333"/>
      <path id="Path_8969" data-name="Path 8969" d="M660.62,220.905a1.36,1.36,0,0,1-.135.589,1.214,1.214,0,0,1-.05.111c-.029.06-.057.118-.085.173a1.237,1.237,0,0,1-.369.453c-.555.382-1.129-.348-1.264-.718a1.468,1.468,0,0,1-.1-.467.725.725,0,0,1,.007-.218,1.365,1.365,0,0,1,.327-.7c.284-.314.661-.56.8-.532a.587.587,0,0,1,.121.037,1.351,1.351,0,0,1,.469.418A1.452,1.452,0,0,1,660.62,220.905Z" transform="translate(-657.981 -218.666)" fill="#44060f"/>
      <path id="Path_8970" data-name="Path 8970" d="M660.651,220.05a1.144,1.144,0,0,1-.866.241,1.775,1.775,0,0,1-.526-.165c.284-.314.66-.56.8-.532a.588.588,0,0,1,.121.037A1.35,1.35,0,0,1,660.651,220.05Z" transform="translate(-658.289 -218.666)" fill="#eaedef"/>
      <path id="Path_8971" data-name="Path 8971" d="M660.49,222.46a1.214,1.214,0,0,1-.05.111c-.029.06-.057.118-.085.173a1.189,1.189,0,0,1-.241.34.538.538,0,0,1-.114.1l-.014.012a.677.677,0,0,1-.888-.164c-.036-.037-.072-.072-.107-.113a1.473,1.473,0,0,1-.369-.908c0-.007.007-.007.007-.012A1.069,1.069,0,0,1,660.49,222.46Z" transform="translate(-657.985 -219.631)" fill="#750414"/>
    </g>
  </g>
</svg>
