<svg xmlns="http://www.w3.org/2000/svg" width="39.254" height="56.541" viewBox="0 0 39.254 56.541">
  <g id="Group_1648" data-name="Group 1648" transform="translate(-743.195 -166.412)">
    <g id="Group_1623" data-name="Group 1623" transform="translate(743.195 166.413)">
      <path id="Path_8893" data-name="Path 8893" d="M754.61,210.016a8.689,8.689,0,1,1,8.67,8.122A8.41,8.41,0,0,1,754.61,210.016Z" transform="translate(-748.402 -182.597)" fill="#501f23"/>
      <path id="Path_8894" data-name="Path 8894" d="M782.1,179.7a13.971,13.971,0,1,1-27.941,0c0-7.805,7.359-13.287,15.074-13.287,3.176,0,5.761,1.406,6.758,4.976C780.34,171.389,782.1,175.107,782.1,179.7Z" transform="translate(-748.198 -166.413)" fill="#501f23"/>
      <g id="Group_1621" data-name="Group 1621" transform="translate(0.413 41.243)">
        <path id="Path_8895" data-name="Path 8895" d="M751.116,249.954V250c-.008.553-.022,1.121-.066,1.675a16.723,16.723,0,0,1-.221,1.984c-.037.214-.073.42-.118.619-.155-.081-.31-.17-.457-.258-.369-.214-.73-.436-1.092-.672-.641-.405-1.261-.848-1.874-1.312a31.479,31.479,0,0,1-3.334-2.951,10,10,0,0,1,3.393-4.979,12.886,12.886,0,0,1,2.81-1.652.026.026,0,0,1,.015-.008c.147-.073.3-.133.457-.2l.162,1.888A50.608,50.608,0,0,1,751.116,249.954Z" transform="translate(-743.954 -242.246)" fill="#ffc197"/>
      </g>
      <g id="Group_1622" data-name="Group 1622" transform="translate(31.678 41.243)">
        <path id="Path_8896" data-name="Path 8896" d="M808.6,249.084a30.713,30.713,0,0,1-3.341,2.958q-.874.663-1.792,1.261c-.384.251-.767.487-1.158.708l-.464.266c-.045-.2-.082-.406-.118-.619a16.646,16.646,0,0,1-.222-1.984c-.037-.516-.059-1.033-.059-1.549a.769.769,0,0,1-.008-.133,51.418,51.418,0,0,1,.324-5.856l.163-1.888c.163.066.325.133.48.214a.039.039,0,0,1,.029.015,12.717,12.717,0,0,1,2.773,1.63A9.992,9.992,0,0,1,808.6,249.084Z" transform="translate(-801.44 -242.246)" fill="#ffc197"/>
      </g>
      <path id="Path_8897" data-name="Path 8897" d="M793.9,201.39c2.662-2.649,3.037,1.355,2.324,3.3-1.175,3.207-3.74,3.827-6.829,3.326Z" transform="translate(-764.268 -181.967)" fill="#f7996b"/>
      <path id="Path_8898" data-name="Path 8898" d="M758.671,201.39c-2.662-2.649-3.037,1.355-2.324,3.3,1.175,3.207,3.74,3.827,6.83,3.326Z" transform="translate(-749.05 -181.967)" fill="#f7996b"/>
      <path id="Path_8899" data-name="Path 8899" d="M781.382,263.226c-.015.118-.03.236-.052.354l-.464.266a26.327,26.327,0,0,1-5.37,2.249,25.182,25.182,0,0,1-14.176,0,26.323,26.323,0,0,1-5.37-2.249c-.155-.081-.31-.17-.457-.258-.022-.119-.037-.236-.052-.362Z" transform="translate(-748.781 -210.572)" fill="#8e24aa"/>
      <path id="Path_8900" data-name="Path 8900" d="M781.9,238.774c0,4.03-7.27,7.3-16.239,7.3s-16.24-3.266-16.24-7.3c0-2,1.785-3.807,4.677-5.121,1.922-.875,7.311-2.134,7.321-2.958.005-.212.01-.717.015-1.355.03-1.83.066-4.727.066-4.727h8.165s.051,1.006.106,2.215c.071,1.562.157,3.468.167,3.973.015.89,5.339,1.972,7.255,2.836C780.1,234.957,781.9,236.772,781.9,238.774Z" transform="translate(-746.037 -192.96)" fill="#ffc197"/>
      <path id="Path_8901" data-name="Path 8901" d="M779.849,226.828c-1.87,3.443-4.869,5.3-6.875,4.277a3.509,3.509,0,0,1-1.457-1.648l0-.117c.03-1.83.066-4.727.066-4.727h8.165S779.794,225.619,779.849,226.828Z" transform="translate(-756.111 -192.96)" fill="#f7996b"/>
      <path id="Path_8902" data-name="Path 8902" d="M780.94,193.66c0,7.451-6.85,13.491-10.274,13.491s-10.275-6.04-10.275-13.491.727-14.737,10.275-14.737S780.94,186.209,780.94,193.66Z" transform="translate(-751.039 -172.119)" fill="#ffc197"/>
      <path id="Path_8903" data-name="Path 8903" d="M775.019,178.877c-.578-4.464-4.064-7.015-7.84-6.205-5.292,1.136-16.638,7.989-8.95,16.943.26-9.7,16.537-6.953,16.4-10.221Z" transform="translate(-748.87 -169.2)" fill="#672528"/>
      <path id="Path_8904" data-name="Path 8904" d="M790.212,181.466c3.612-.947,8.249,3.451,7.688,7.049-.316,2.02-1.8,3.432-3.364,5.124-.3-1.752-.373-5.06-3.215-7.865-1.146-1.131-.842-2.289-1.108-3.809Z" transform="translate(-764.641 -173.219)" fill="#672528"/>
      <path id="Path_8905" data-name="Path 8905" d="M779.51,213.818c0,.415-.633.751-1.412.751s-1.412-.336-1.412-.751.633-.29,1.412-.29S779.51,213.4,779.51,213.818Z" transform="translate(-758.471 -187.895)" fill="#f7996b"/>
      <path id="Path_8906" data-name="Path 8906" d="M773.591,174.414c-1.457,2.186-.83,3.763.364,5.631-3.566.693-9.4,2.609-11.205,4.952C761.911,181.609,765.366,174.414,773.591,174.414Z" transform="translate(-752.059 -170.063)" fill="#7f3830"/>
      <path id="Path_8907" data-name="Path 8907" d="M796.076,184.143c-.1,1.422-.89,1.892-2.023,2.3,1.3,1.48,3.177,4.238,3.176,5.842C798.711,191.106,799.611,186.868,796.076,184.143Z" transform="translate(-766.393 -174.5)" fill="#7f3830"/>
      <path id="Path_8908" data-name="Path 8908" d="M804.854,250.07c-.14.147-.28.287-.413.435a30.716,30.716,0,0,1-3.341,2.958q-.874.663-1.792,1.261c-.384.251-.767.487-1.158.708l-.464.266a26.328,26.328,0,0,1-5.37,2.249l1.284-2.869.162-.354c.11-.133.229-.258.347-.376.951-1,2.109-1.7,2.994-2.722a.693.693,0,0,0,.1-.11.64.64,0,0,0,.074-.1.77.77,0,0,0,.081-.11,2.294,2.294,0,0,0,.133-.2c.1-.155.207-.339.332-.546.059-.1.126-.214.191-.325.008-.015.022-.036.03-.052.059-.1.117-.2.177-.3.42-.73.907-1.585,1.364-2.338q.121-.21.243-.4c.17-.28.332-.538.48-.76.118-.17.221-.325.325-.45.007-.015.022-.029.029-.044a1.511,1.511,0,0,1,.133-.155,1.155,1.155,0,0,1,.133-.133.527.527,0,0,1,.118-.073.1.1,0,0,1,.052-.03.568.568,0,0,1,.133-.066c.575-.229,1.166.14,1.674.745.1.118.207.251.3.383.059.081.118.17.177.258.074.126.155.258.228.383.126.221.244.45.347.671.17.362.362.811.553,1.305.059.141.118.288.17.436S804.8,249.914,804.854,250.07Z" transform="translate(-765.6 -202.424)" fill="#ab47bc"/>
      <path id="Path_8909" data-name="Path 8909" d="M801.1,254.318q-.874.663-1.792,1.261c-.384.251-.767.487-1.158.708l-.464.266a26.329,26.329,0,0,1-5.37,2.249l1.284-2.869.162-.354c.11-.133.229-.258.347-.376.951-1,2.109-1.7,2.994-2.722a.693.693,0,0,0,.1-.11.638.638,0,0,0,.074-.1.77.77,0,0,0,.081-.11,2.294,2.294,0,0,0,.133-.2c.1-.155.207-.339.332-.546.059-.1.126-.214.191-.325.008-.015.022-.036.03-.052.059-.1.117-.2.177-.3.42-.73.907-1.585,1.364-2.338q.121-.21.243-.4c.17-.28.332-.538.48-.76-.03.177-.052.346-.066.524-.029.258-.052.524-.066.782v.015a13.44,13.44,0,0,0,.192,3.172v.007c.022.155.052.318.089.472a6.731,6.731,0,0,0,.163.679.21.21,0,0,0,.015.067c.066.228.133.457.206.685A3.368,3.368,0,0,0,801.1,254.318Z" transform="translate(-765.6 -203.279)" fill="#8e24aa"/>
      <path id="Path_8910" data-name="Path 8910" d="M811.26,249.612c.059.147.118.3.17.457-.14.147-.28.287-.413.435a30.721,30.721,0,0,1-3.341,2.958,3.365,3.365,0,0,1-.258-.679c-.073-.228-.14-.457-.206-.685a.211.211,0,0,1-.015-.067,6.746,6.746,0,0,1-.163-.679c-.037-.154-.066-.317-.089-.472a13.5,13.5,0,0,1-.192-3.179v-.015c.015-.258.037-.524.066-.782.015-.177.036-.347.066-.524.118-.17.221-.325.325-.45.007-.015.022-.029.029-.044a1.512,1.512,0,0,1,.133-.155,1.151,1.151,0,0,1,.133-.133.529.529,0,0,1,.118-.073.1.1,0,0,1,.052-.03.568.568,0,0,1,.133-.066c.575-.229,1.166.14,1.674.745.1.118.207.251.3.383.059.081.118.17.177.258.074.126.155.258.229.383.126.221.244.45.347.671.17.362.362.811.553,1.305C811.15,249.318,811.208,249.464,811.26,249.612Z" transform="translate(-772.176 -202.424)" fill="#ab47bc"/>
      <path id="Path_8911" data-name="Path 8911" d="M755.734,257.95a26.325,26.325,0,0,1-5.37-2.249c-.155-.081-.31-.17-.457-.258-.369-.214-.73-.436-1.092-.672-.641-.405-1.261-.848-1.874-1.312a31.477,31.477,0,0,1-3.334-2.95c-.132-.148-.272-.288-.413-.435.044-.133.089-.258.14-.376.191-.531.391-1.018.575-1.431.059-.14.119-.273.178-.391.656-1.409,1.821-3.024,2.913-2.345a.52.52,0,0,1,.118.073,1.68,1.68,0,0,1,.295.325,18.045,18.045,0,0,1,1.055,1.63c.037.066.081.14.132.221.038.059.074.125.111.192.059.1.118.191.177.295.612,1.04,1.224,2.132,1.623,2.766.073.125.147.236.206.317a.229.229,0,0,0,.052.066v.007a.568.568,0,0,0,.073.1c.9,1.084,2.11,1.807,3.1,2.832.118.119.236.244.346.376l.163.354Z" transform="translate(-743.195 -202.428)" fill="#ab47bc"/>
      <path id="Path_8912" data-name="Path 8912" d="M750.512,251.032a1.359,1.359,0,0,1-.163.118.954.954,0,0,1-.17.133c-.376.288-.753.568-1.136.826a23.085,23.085,0,0,1-2.1,1.35,31.477,31.477,0,0,1-3.334-2.95c-.132-.148-.272-.288-.413-.435.044-.133.089-.258.14-.376.191-.531.391-1.018.575-1.431.059-.14.119-.273.178-.391.656-1.409,1.821-3.024,2.913-2.345a.52.52,0,0,1,.118.073,1.68,1.68,0,0,1,.295.325,18.045,18.045,0,0,1,1.055,1.63c.037.066.081.14.132.221.038.059.074.125.111.192.059.1.118.191.177.295C749.5,249.306,750.114,250.4,750.512,251.032Z" transform="translate(-743.195 -202.428)" fill="#ab47bc"/>
      <path id="Path_8913" data-name="Path 8913" d="M758.876,262.7a26.321,26.321,0,0,1-5.37-2.249c-.155-.081-.31-.17-.457-.258-.369-.214-.73-.436-1.092-.672-.641-.405-1.261-.848-1.874-1.312a23.1,23.1,0,0,0,2.1-1.35c.383-.258.76-.538,1.136-.826a.951.951,0,0,0,.17-.133,1.363,1.363,0,0,0,.163-.118c.073.125.147.235.206.317a.229.229,0,0,0,.052.066v.007a.575.575,0,0,0,.073.1c.9,1.084,2.11,1.807,3.1,2.832.118.119.236.244.346.376l.163.354Z" transform="translate(-746.337 -207.177)" fill="#8e24aa"/>
      <path id="Path_8914" data-name="Path 8914" d="M781.616,259.544c-.384.251-.767.487-1.159.708l-.464.266a26.328,26.328,0,0,1-5.37,2.249,25.182,25.182,0,0,1-14.176,0,26.324,26.324,0,0,1-5.37-2.249c-.155-.081-.31-.17-.457-.258-.369-.214-.73-.436-1.092-.672a14.446,14.446,0,0,1,.782-2.3,11.136,11.136,0,0,1,.583-1.187c.029-.059.066-.118.1-.17a.242.242,0,0,0,.074.037,3.662,3.662,0,0,0,.369.2.194.194,0,0,0,.052.029,27.748,27.748,0,0,0,12.221,2.493,28.409,28.409,0,0,0,11.705-2.242,1.428,1.428,0,0,0,.185-.081c.2-.1.4-.2.59-.3.215.376.428.782.627,1.195A9.92,9.92,0,0,1,781.616,259.544Z" transform="translate(-747.909 -207.244)" fill="#ab47bc"/>
    </g>
    <g id="Group_1624" data-name="Group 1624" transform="translate(765.334 179.959)">
      <path id="Path_8915" data-name="Path 8915" d="M790.133,194.463a4.82,4.82,0,0,0-2.2-2.559c-1.04-.525-2.239-.278-3.336-.563-.726-.189-.989.99-.26,1.178.97.249,1.988.1,2.952.389a6.116,6.116,0,0,1,2.721,1.721c.083.09.154-.1.126-.165Z" transform="translate(-783.901 -191.319)" fill="#501f23"/>
    </g>
    <path id="Path_8916" data-name="Path 8916" d="M783.424,202.627c.641-2.764,3.277-5.38,5.629-3.935a2.445,2.445,0,0,1,.2,3.8c-1.492,1.342-3.565,1.164-5.27.458Z" transform="translate(-18.35 -14.536)" fill="#501f23"/>
    <path id="Path_8917" data-name="Path 8917" d="M784.366,205.621c1.289,1.937,4.843,1.46,5.237-.069a1.445,1.445,0,0,0-.289-1.272Z" transform="translate(-18.779 -17.272)" fill="#501f23"/>
    <path id="Path_8918" data-name="Path 8918" d="M783.921,203.82a4.38,4.38,0,0,1,2.557-3.042c1.967-.722,3.365.534,3.168,1.99-.255,1.87-2.191,2.4-3.649,2.154A6.234,6.234,0,0,1,783.921,203.82Z" transform="translate(-18.576 -15.579)" fill="#eaedef"/>
    <path id="Path_8919" data-name="Path 8919" d="M789.84,203.238a1.951,1.951,0,1,1-1.951-1.951A1.951,1.951,0,0,1,789.84,203.238Z" transform="translate(-19.496 -15.907)" fill="#5b7f22"/>
    <path id="Path_8920" data-name="Path 8920" d="M793.067,204.569a.5.5,0,1,1-.5-.5A.5.5,0,0,1,793.067,204.569Z" transform="translate(-22.293 -17.177)" fill="#fff"/>
    <g id="Group_1625" data-name="Group 1625" transform="translate(754.072 179.929)">
      <path id="Path_8921" data-name="Path 8921" d="M763.2,194.416a4.824,4.824,0,0,1,2.2-2.563c1.039-.527,2.238-.281,3.334-.568.727-.191.992.989.263,1.177-.97.25-1.988.107-2.951.393a6.109,6.109,0,0,0-2.718,1.725c-.082.09-.155-.1-.127-.164Z" transform="translate(-763.194 -191.264)" fill="#501f23"/>
    </g>
    <path id="Path_8922" data-name="Path 8922" d="M769.576,202.627c-.642-2.764-3.278-5.38-5.629-3.935a2.445,2.445,0,0,0-.2,3.8c1.492,1.342,3.565,1.164,5.27.458Z" transform="translate(-9.006 -14.536)" fill="#501f23"/>
    <path id="Path_8923" data-name="Path 8923" d="M769.774,205.621c-1.29,1.937-4.843,1.46-5.237-.069a1.443,1.443,0,0,1,.29-1.272Z" transform="translate(-9.717 -17.272)" fill="#501f23"/>
    <path id="Path_8924" data-name="Path 8924" d="M769.828,203.82a4.378,4.378,0,0,0-2.556-3.042c-1.968-.722-3.365.534-3.168,1.99.255,1.87,2.19,2.4,3.649,2.154A6.229,6.229,0,0,0,769.828,203.82Z" transform="translate(-9.529 -15.579)" fill="#eaedef"/>
    <path id="Path_8925" data-name="Path 8925" d="M769.355,203.238a1.951,1.951,0,1,1-1.95-1.951A1.95,1.95,0,0,1,769.355,203.238Z" transform="translate(-10.153 -15.907)" fill="#5b7f22"/>
    <path id="Path_8926" data-name="Path 8926" d="M772.582,204.569a.5.5,0,1,1-.5-.5A.5.5,0,0,1,772.582,204.569Z" transform="translate(-12.949 -17.177)" fill="#fff"/>
    <g id="Group_1626" data-name="Group 1626" transform="translate(758.639 194.154)">
      <path id="Path_8927" data-name="Path 8927" d="M780.074,217.854c-.059.132-.133.287-.214.464-.045.081-.1.177-.148.273s-.1.191-.163.295a7.947,7.947,0,0,1-.567.87c-.008.008-.008.015-.015.022a.247.247,0,0,1-.044.059,4,4,0,0,1-3.068,1.851c-2.257,0-3.732-2.641-4.263-3.733.022,0,.1-.022.235-.051a20.967,20.967,0,0,1,3.858-.48,25.953,25.953,0,0,1,4.182.4C779.978,217.838,780.052,217.854,780.074,217.854Z" transform="translate(-771.592 -217.42)" fill="#ac2436"/>
      <path id="Path_8928" data-name="Path 8928" d="M779.982,218.349c-.1.184-.207.369-.325.553,0,0,0,.015-.007.015-.819,1.305-2.036,2.663-3.592,2.663a4.147,4.147,0,0,1-3.26-2.235c-.184-.281-.354-.568-.509-.848a15.8,15.8,0,0,0,3.769.251A19.2,19.2,0,0,0,779.982,218.349Z" transform="translate(-771.91 -217.844)" fill="#44060f"/>
      <path id="Path_8929" data-name="Path 8929" d="M778.238,222.095a6.169,6.169,0,0,0,2.072-1.218,2.709,2.709,0,0,0-.32-.355,3.225,3.225,0,0,0-2.094-.723,2.932,2.932,0,0,0-2.522,1.225,1.788,1.788,0,0,0-.221.506A3.485,3.485,0,0,0,778.238,222.095Z" transform="translate(-773.216 -218.505)" fill="#750414"/>
      <path id="Path_8930" data-name="Path 8930" d="M779.982,218.349a4.246,4.246,0,0,1-1.242.995,6.753,6.753,0,0,1-2.874.591,4.961,4.961,0,0,1-3.578-1.438,16.344,16.344,0,0,0,3.769.251A19.2,19.2,0,0,0,779.982,218.349Z" transform="translate(-771.91 -217.844)" fill="#f4f4f4"/>
      <path id="Path_8931" data-name="Path 8931" d="M776.058,218.747a16.344,16.344,0,0,1-3.769-.251,3.575,3.575,0,0,0,1.783,1.12,4.955,4.955,0,0,1,2.911-.671,3.292,3.292,0,0,1,1.664.436c.029-.014.064-.024.093-.038a4.246,4.246,0,0,0,1.242-.995A19.2,19.2,0,0,1,776.058,218.747Z" transform="translate(-771.91 -217.844)" fill="#eaedef"/>
      <path id="Path_8932" data-name="Path 8932" d="M780.074,218.192c-.059.132-.133.287-.214.464-.045.081-.1.177-.148.273s-.1.191-.163.295c-.162.244-.339.524-.567.87-.008.008-.008.015-.015.022a.247.247,0,0,1-.044.059,4,4,0,0,1-3.068,1.851c-2.257,0-3.732-2.641-4.263-3.733.022,0,.1-.022.235-.051a1.081,1.081,0,0,1,.14.17,7.887,7.887,0,0,0,1.1,1.268c.207.192.435.4.679.6a6.255,6.255,0,0,0,.833.546,2.877,2.877,0,0,0,.656.251,2.4,2.4,0,0,0,1.741-.295,6.18,6.18,0,0,0,.73-.457,6.515,6.515,0,0,0,.656-.546,7.792,7.792,0,0,0,1.195-1.364.908.908,0,0,1,.31-.251C779.978,218.177,780.052,218.192,780.074,218.192Z" transform="translate(-771.592 -217.759)" fill="#c82333"/>
      <path id="Path_8933" data-name="Path 8933" d="M786.272,218.208l.393-.072-.624-.1Z" transform="translate(-778.182 -217.703)" fill="#ac2436"/>
      <path id="Path_8934" data-name="Path 8934" d="M771.592,218.34l.379-.079.184.24Z" transform="translate(-771.592 -217.803)" fill="#ac2436"/>
    </g>
  </g>
</svg>
