<svg xmlns="http://www.w3.org/2000/svg" width="39.11" height="55.867" viewBox="0 0 39.11 55.867">
  <g id="Group_1647" data-name="Group 1647" transform="translate(-622.535 -291.596)">
    <g id="Group_1636" data-name="Group 1636" transform="translate(622.535 291.596)">
      <path id="Path_8972" data-name="Path 8972" d="M655.632,298.182a8.228,8.228,0,0,0-5.787-1.871c-.59-1.91-2.671-3.4-4.946-4.408-3.3-1.455-12.633,2.315-18.008,10.246-3.957,5.838-5.489,14.418-.193,17.67,1.036,9.9,10.186,11.307,15.833,10.3,8.157-1.461,13.55-6,15.754-10.052C663.269,310.882,656.815,299.31,655.632,298.182Z" transform="translate(-622.883 -291.596)" fill="#d36f0b"/>
      <g id="Group_1632" data-name="Group 1632" transform="translate(0.411 40.626)">
        <path id="Path_8973" data-name="Path 8973" d="M630.43,374.248v.044c-.008.551-.022,1.117-.066,1.668a16.406,16.406,0,0,1-.221,1.977c-.037.214-.073.419-.118.618-.154-.081-.309-.169-.456-.257-.367-.213-.727-.434-1.088-.669-.639-.4-1.257-.845-1.867-1.308a31.257,31.257,0,0,1-3.322-2.94,9.969,9.969,0,0,1,3.38-4.96,12.892,12.892,0,0,1,2.8-1.646.025.025,0,0,1,.014-.007c.148-.074.3-.132.456-.2l.161,1.881A50.368,50.368,0,0,1,630.43,374.248Z" transform="translate(-623.294 -366.569)" fill="#ffc197"/>
      </g>
      <g id="Group_1633" data-name="Group 1633" transform="translate(31.562 40.626)">
        <path id="Path_8974" data-name="Path 8974" d="M687.917,373.381a30.609,30.609,0,0,1-3.328,2.947q-.871.662-1.785,1.257c-.383.25-.766.486-1.154.706l-.463.265c-.044-.2-.081-.4-.118-.618a16.772,16.772,0,0,1-.221-1.977c-.037-.514-.058-1.028-.058-1.543a.841.841,0,0,1-.007-.133,51.234,51.234,0,0,1,.323-5.834l.162-1.881c.161.066.323.132.477.213a.036.036,0,0,1,.029.015,12.717,12.717,0,0,1,2.763,1.624A9.952,9.952,0,0,1,687.917,373.381Z" transform="translate(-680.781 -366.569)" fill="#ffc197"/>
      </g>
      <path id="Path_8975" data-name="Path 8975" d="M673.222,325.709c2.653-2.639,3.026,1.35,2.315,3.289-1.17,3.194-3.726,3.813-6.8,3.314Z" transform="translate(-643.699 -306.823)" fill="#f7996b"/>
      <path id="Path_8976" data-name="Path 8976" d="M638,325.709c-2.652-2.639-3.025,1.35-2.315,3.289,1.171,3.194,3.726,3.813,6.8,3.314Z" transform="translate(-628.415 -306.823)" fill="#f7996b"/>
      <path id="Path_8977" data-name="Path 8977" d="M661.125,363.044c0,4.015-7.243,7.269-16.18,7.269s-16.179-3.253-16.179-7.269c0-1.989,1.778-3.793,4.659-5.1,1.914-.871,7.284-2.125,7.294-2.947,0-.211.01-.715.014-1.35.03-1.823.067-4.71.067-4.71h8.135s.05,1,.106,2.207c.07,1.556.156,3.456.165,3.959.016.887,5.32,1.965,7.229,2.826C659.332,359.242,661.125,361.05,661.125,363.044Z" transform="translate(-625.39 -317.864)" fill="#ffc197"/>
      <path id="Path_8978" data-name="Path 8978" d="M659.158,351.142c-1.864,3.431-4.851,5.279-6.85,4.261a3.492,3.492,0,0,1-1.452-1.642l-.005-.116c.03-1.823.067-4.71.067-4.71h8.135S659.1,349.938,659.158,351.142Z" transform="translate(-635.507 -317.864)" fill="#f7996b"/>
      <path id="Path_8979" data-name="Path 8979" d="M660.2,317.929c0,7.424-6.824,13.442-10.236,13.442s-10.237-6.018-10.237-13.442.724-14.683,10.237-14.683S660.2,310.5,660.2,317.929Z" transform="translate(-630.413 -296.933)" fill="#ffc197"/>
      <path id="Path_8980" data-name="Path 8980" d="M654.288,303.176c-.576-4.447-4.049-6.989-7.811-6.182-5.272,1.131-16.577,7.961-8.918,16.882.26-9.67,16.477-6.928,16.343-10.184Z" transform="translate(-628.234 -294.001)" fill="#ed9535"/>
      <path id="Path_8981" data-name="Path 8981" d="M669.552,305.787c3.6-.943,8.219,3.438,7.658,7.024-.314,2.013-1.792,3.419-3.351,5.105-.3-1.746-.372-5.042-3.2-7.837-1.142-1.127-.839-2.28-1.1-3.794Z" transform="translate(-644.074 -298.038)" fill="#ed9535"/>
      <path id="Path_8982" data-name="Path 8982" d="M658.839,338.139c0,.413-.63.748-1.407.748s-1.407-.335-1.407-.748.63-.29,1.407-.29S658.839,337.726,658.839,338.139Z" transform="translate(-637.878 -312.778)" fill="#f7996b"/>
      <path id="Path_8983" data-name="Path 8983" d="M652.89,298.736c-1.451,2.178-.826,3.749.363,5.611-3.552.691-9.37,2.6-11.164,4.934C641.253,305.905,644.7,298.736,652.89,298.736Z" transform="translate(-631.437 -294.867)" fill="#ffb64d"/>
      <path id="Path_8984" data-name="Path 8984" d="M675.409,308.157c-.1,1.417-.887,1.885-2.015,2.291,1.3,1.474,3.166,4.222,3.163,5.821C678.036,315.095,678.931,310.872,675.409,308.157Z" transform="translate(-645.835 -299.183)" fill="#ffb64d"/>
      <path id="Path_8985" data-name="Path 8985" d="M684.148,374.375c-.139.146-.28.286-.412.433a30.6,30.6,0,0,1-3.328,2.947q-.871.662-1.786,1.257c-.382.25-.766.486-1.154.706l-.463.265a26.213,26.213,0,0,1-5.35,2.241l1.279-2.859.161-.353c.11-.132.228-.257.345-.374.949-.992,2.1-1.69,2.984-2.712a.7.7,0,0,0,.1-.111.607.607,0,0,0,.074-.1.758.758,0,0,0,.081-.11,2.218,2.218,0,0,0,.132-.2c.1-.154.206-.338.332-.544.057-.1.125-.213.191-.324.007-.015.022-.036.029-.051.059-.1.118-.2.176-.3.419-.728.9-1.58,1.36-2.33.082-.14.162-.272.243-.4.169-.279.332-.536.477-.756.118-.17.222-.324.324-.449.008-.015.022-.029.03-.044a1.331,1.331,0,0,1,.132-.154,1.148,1.148,0,0,1,.132-.132.52.52,0,0,1,.118-.074.093.093,0,0,1,.052-.029.581.581,0,0,1,.132-.066c.573-.228,1.161.14,1.668.742.1.118.206.25.3.383.059.081.118.169.177.257.073.125.155.257.228.382.125.22.243.448.345.669.168.36.36.808.551,1.3.059.14.118.287.169.434S684.1,374.22,684.148,374.375Z" transform="translate(-645.038 -327.37)" fill="#2073a5"/>
      <path id="Path_8986" data-name="Path 8986" d="M680.408,378.614q-.871.662-1.786,1.257c-.382.25-.766.485-1.154.705l-.463.265a26.216,26.216,0,0,1-5.35,2.241l1.279-2.859.161-.353c.11-.132.228-.257.345-.374.949-.992,2.1-1.69,2.984-2.712a.705.705,0,0,0,.1-.111.607.607,0,0,0,.074-.1.76.76,0,0,0,.081-.11,2.211,2.211,0,0,0,.132-.2c.1-.154.206-.338.332-.544.057-.1.125-.213.191-.324.007-.015.022-.036.029-.051.059-.1.118-.2.176-.3.419-.728.9-1.58,1.36-2.33.082-.14.162-.272.243-.4.169-.279.332-.536.477-.756-.029.176-.051.345-.065.521-.029.257-.052.522-.066.779v.015a13.4,13.4,0,0,0,.191,3.16v.007c.022.154.051.316.088.47.044.228.1.456.162.676a.193.193,0,0,0,.015.066c.066.228.132.455.206.683A3.289,3.289,0,0,0,680.408,378.614Z" transform="translate(-645.038 -328.229)" fill="#0e549b"/>
      <path id="Path_8987" data-name="Path 8987" d="M635.028,382.227a26.237,26.237,0,0,1-5.35-2.241c-.154-.081-.309-.169-.456-.257-.367-.213-.727-.434-1.087-.669-.639-.4-1.257-.845-1.867-1.308a31.241,31.241,0,0,1-3.322-2.94c-.132-.147-.271-.287-.411-.433.044-.133.088-.257.14-.376.191-.529.389-1.014.572-1.426.059-.139.118-.272.177-.389.654-1.4,1.814-3.013,2.9-2.337a.5.5,0,0,1,.118.074,1.652,1.652,0,0,1,.294.324,17.512,17.512,0,0,1,1.051,1.624c.037.066.081.139.132.22.037.059.074.125.11.191.059.1.118.191.177.294.61,1.037,1.22,2.124,1.616,2.756.074.125.147.235.206.316a.234.234,0,0,0,.052.066v.008a.537.537,0,0,0,.074.1c.9,1.08,2.1,1.8,3.086,2.822.118.118.235.243.346.374l.161.353Z" transform="translate(-622.535 -327.374)" fill="#2073a5"/>
      <path id="Path_8988" data-name="Path 8988" d="M638.184,387a26.239,26.239,0,0,1-5.35-2.241c-.154-.081-.309-.169-.456-.257-.367-.213-.727-.434-1.088-.669-.639-.4-1.257-.845-1.867-1.308a22.967,22.967,0,0,0,2.094-1.345c.383-.257.757-.536,1.132-.823a.975.975,0,0,0,.169-.132,1.314,1.314,0,0,0,.161-.118c.074.125.147.235.206.316a.234.234,0,0,0,.052.066v.008a.539.539,0,0,0,.074.1c.9,1.08,2.1,1.8,3.086,2.822.117.118.235.243.346.374l.161.353Z" transform="translate(-625.691 -332.143)" fill="#0e549b"/>
      <path id="Path_8989" data-name="Path 8989" d="M660.854,383.853c-.383.25-.766.486-1.154.706l-.463.265a26.218,26.218,0,0,1-5.35,2.241,25.1,25.1,0,0,1-14.124,0,26.237,26.237,0,0,1-5.35-2.241c-.154-.081-.309-.169-.456-.257-.367-.213-.727-.434-1.088-.669a14.242,14.242,0,0,1,.779-2.293,11.062,11.062,0,0,1,.58-1.183c.03-.059.066-.118.1-.169a.242.242,0,0,0,.074.037,3.953,3.953,0,0,0,.367.2.176.176,0,0,0,.052.029A27.647,27.647,0,0,0,646.993,383a28.321,28.321,0,0,0,11.663-2.234,1.523,1.523,0,0,0,.184-.081c.2-.1.4-.2.588-.3.213.375.426.779.625,1.191A9.988,9.988,0,0,1,660.854,383.853Z" transform="translate(-627.269 -332.211)" fill="#2073a5"/>
      <path id="Path_8990" data-name="Path 8990" d="M662.764,327.984c.639-2.031,3.266-3.952,5.608-2.891a1.534,1.534,0,0,1,.2,2.791,6.374,6.374,0,0,1-5.251.336Z" transform="translate(-640.965 -306.803)" fill="#501f23"/>
      <path id="Path_8991" data-name="Path 8991" d="M663.706,329.769c1.285,1.7,4.825,1.277,5.218-.06a1.16,1.16,0,0,0-.288-1.114Z" transform="translate(-641.396 -308.546)" fill="#501f23"/>
      <path id="Path_8992" data-name="Path 8992" d="M665.44,330.368a.54.54,0,0,1-.11-.008,6.91,6.91,0,0,1-2.064-.815,3.068,3.068,0,0,1,1.2-1.58,2,2,0,0,0-.118.669A1.918,1.918,0,0,0,665.44,330.368Z" transform="translate(-641.195 -308.257)" fill="#eaedef"/>
      <path id="Path_8993" data-name="Path 8993" d="M672.515,328.164a1.971,1.971,0,0,1-1.506,1.419,1.949,1.949,0,0,0,.2-2.947C672.119,326.857,672.64,327.481,672.515,328.164Z" transform="translate(-644.742 -307.648)" fill="#eaedef"/>
      <path id="Path_8994" data-name="Path 8994" d="M669.159,327.951a1.946,1.946,0,0,1-.779,1.558h-.008a5.059,5.059,0,0,1-2.013.177,1.918,1.918,0,0,1-1.088-1.734,1.994,1.994,0,0,1,.118-.669,4.427,4.427,0,0,1,1.338-.654,3.731,3.731,0,0,1,1.851-.066A1.936,1.936,0,0,1,669.159,327.951Z" transform="translate(-642.113 -307.575)" fill="#4090a8"/>
      <path id="Path_8995" data-name="Path 8995" d="M672.4,328.89a.5.5,0,1,1-.5-.5A.5.5,0,0,1,672.4,328.89Z" transform="translate(-644.925 -308.453)" fill="#fff"/>
      <path id="Path_8996" data-name="Path 8996" d="M648.891,327.984c-.64-2.031-3.266-3.952-5.609-2.891a1.533,1.533,0,0,0-.194,2.791,6.37,6.37,0,0,0,5.25.336Z" transform="translate(-631.579 -306.803)" fill="#501f23"/>
      <path id="Path_8997" data-name="Path 8997" d="M649.095,329.769c-1.285,1.7-4.825,1.277-5.219-.06a1.157,1.157,0,0,1,.29-1.114Z" transform="translate(-632.294 -308.546)" fill="#501f23"/>
      <path id="Path_8998" data-name="Path 8998" d="M644.948,329.583a1.948,1.948,0,0,1-1.5-1.419c-.125-.683.4-1.308,1.3-1.528a1.95,1.95,0,0,0,.2,2.947Z" transform="translate(-632.108 -307.648)" fill="#eaedef"/>
      <path id="Path_8999" data-name="Path 8999" d="M652.149,329.545a6.991,6.991,0,0,1-2.072.815.473.473,0,0,1-.1.008,1.924,1.924,0,0,0,1.081-1.735,1.836,1.836,0,0,0-.125-.669A3.045,3.045,0,0,1,652.149,329.545Z" transform="translate(-635.105 -308.257)" fill="#eaedef"/>
      <path id="Path_9000" data-name="Path 9000" d="M648.682,327.951a1.924,1.924,0,0,1-1.081,1.734,5.089,5.089,0,0,1-2.021-.177h-.007a1.949,1.949,0,0,1-.2-2.947,3.734,3.734,0,0,1,1.852.066,4.01,4.01,0,0,1,1.331.654A1.834,1.834,0,0,1,648.682,327.951Z" transform="translate(-632.732 -307.575)" fill="#4090a8"/>
      <path id="Path_9001" data-name="Path 9001" d="M651.918,328.89a.5.5,0,1,1-.5-.5A.5.5,0,0,1,651.918,328.89Z" transform="translate(-635.541 -308.453)" fill="#fff"/>
      <g id="Group_1634" data-name="Group 1634" transform="translate(21.816 15.162)">
        <path id="Path_9002" data-name="Path 9002" d="M669.53,321.24a4.8,4.8,0,0,0-2.935-1.645c-1.152-.137-2.19.5-3.315.61-.745.07-.588,1.264.159,1.191.992-.1,1.9-.58,2.9-.642a6.092,6.092,0,0,1,3.134.684c.108.056.11-.144.061-.2Z" transform="translate(-662.795 -319.576)" fill="#501f23"/>
      </g>
      <g id="Group_1635" data-name="Group 1635" transform="translate(10.789 14.884)">
        <path id="Path_9003" data-name="Path 9003" d="M642.5,320.11a4.8,4.8,0,0,1,3.2-1.035c1.157.092,2.048.924,3.129,1.25.717.216.329,1.356-.388,1.138-.954-.292-1.747-.943-2.713-1.2a6.09,6.09,0,0,0-3.207.053c-.116.034-.081-.163-.023-.205Z" transform="translate(-642.445 -319.063)" fill="#501f23"/>
      </g>
      <path id="Path_9004" data-name="Path 9004" d="M637.471,362.786s-2.892,12.1,7.416,12.1,6.556-12.343,6.556-12.343,7.388,1.128,10.424,4.419c-1.546,2.51-8.271,9.585-8.271,9.585l-8.615.921-13.992-5.328-2.223-5.727S633.635,363.316,637.471,362.786Z" transform="translate(-625.39 -324.098)" fill="#2073a5"/>
    </g>
    <g id="Group_1637" data-name="Group 1637" transform="translate(638.468 319.504)">
      <path id="Path_9005" data-name="Path 9005" d="M655.682,343.193c-1.3.03-2.9.445-3.744-.095a6.772,6.772,0,0,0,3.453,2.564c.091-.005.191-.014.29-.027.1.013.2.022.291.027a6.779,6.779,0,0,0,3.453-2.564C658.581,343.638,656.986,343.223,655.682,343.193Z" transform="translate(-651.938 -343.098)" fill="#d81b60"/>
      <path id="Path_9006" data-name="Path 9006" d="M655.982,344.721a10.936,10.936,0,0,1-3.62-1.043c.887,1.138,2.115,2.486,3.5,2.454h.115c1.386.032,2.93-1.681,3.417-2.454A9.2,9.2,0,0,1,655.982,344.721Z" transform="translate(-652.132 -343.364)" fill="#ec407a"/>
    </g>
  </g>
</svg>
